<svg xmlns="http://www.w3.org/2000/svg" width="74.916" height="83.86" viewBox="0 0 74.916 83.86"><defs><style>.a{fill:#45a800;}.b{fill:#fff;}.c{fill:#01197e;}</style></defs><path class="a" d="M78.915,56.549V25.3a8.456,8.456,0,0,0-4.114-7.34Q60.213,9.526,45.625,1.109A8.562,8.562,0,0,0,39.645.19,8.652,8.652,0,0,0,37.45,1C27.606,6.7,17.736,12.362,7.906,18.074a8.474,8.474,0,0,0-3.654,4.99A16.538,16.538,0,0,0,4,27.017V58.926A8.436,8.436,0,0,0,6.263,64.48,11.034,11.034,0,0,0,9,66.463Q22.363,74.184,35.742,81.9a14.46,14.46,0,0,0,3.088,1.55,8.8,8.8,0,0,0,4.127.289c1.893-.328,3.47-1.457,5.1-2.39,1.788-1,3.549-2.049,5.323-3.073,7.018-4.018,14-8.089,21.015-12.12a8.432,8.432,0,0,0,4.232-5.384A16.306,16.306,0,0,0,78.915,56.549Z" transform="translate(-4)"/><path class="a" d="M53.877,56.049a17.949,17.949,0,0,1,6.414-.788c2.8.013,5.612.052,8.411,0,2.51-.013,5.086-.158,7.491.709a7.581,7.581,0,0,1,3.93,2.81,9.85,9.85,0,0,1,1.669,4.727c-1.643.026-3.3.013-4.941,0-.223.039-.25-.223-.3-.368-.316-1.274-.617-2.547-.959-3.821-2.142-.013-4.285.026-6.427.131-.881,1.169-.565,2.889-1.577,3.979a6.6,6.6,0,0,1-2.155.249,6.6,6.6,0,0,1-2.326-.236c-.237-.066-.368-.289-.5-.486-.631-1-.618-2.245-1.078-3.322-.079-.158-.2-.381-.407-.341-1.1,0-2.208.039-3.3.039a22.186,22.186,0,0,0-2.957.105c-.355,1.326-.71,2.652-1.025,3.979a5.125,5.125,0,0,1-1,.079c-1.38-.013-2.76.013-4.14,0A8.879,8.879,0,0,1,53.877,56.049Z" transform="translate(-28.404 -30.161)"/><path class="a" d="M52.444,116.246c6.44-.026,12.88-.039,19.32,0,1.577-.013,3.154.131,4.744.1,1.459,0,2.931.118,4.39.184.092,1.326-.237,2.8.6,3.939-11.394.026-22.789,0-34.184.013-1.682-.026-3.364.053-5.047-.04.841-1.129.578-2.6.644-3.926,1.419-.026,2.839-.171,4.271-.158C48.948,116.39,50.7,116.233,52.444,116.246Z" transform="translate(-24.895 -63.453)"/><path class="b" d="M79.026,76.751c-1.091-.053-2.168-.092-3.259-.105a5.019,5.019,0,0,0,.828-1.707,15.449,15.449,0,0,0,.421-3.887c0-1.444.039-2.889-.092-4.333a10.463,10.463,0,0,1,.3-1.1,16.037,16.037,0,0,0,.289-4.688,16.34,16.34,0,0,0-.907-4.491,8.565,8.565,0,0,1-.447-1.221,9.534,9.534,0,0,0-2.168-3.9,7.458,7.458,0,0,0-2.431-1.576c.539-.972,1.774-1.156,2.563-1.852.3-.276.683-.617.525-1.064a5.965,5.965,0,0,0-1.577-2.6,7.393,7.393,0,0,0-3.22.919c-.223-.026-.316-.341-.46-.5a24.64,24.64,0,0,0-2.76-4.6,12.8,12.8,0,0,0-3.877-2.731,12.633,12.633,0,0,0-3.667-1.051,54.682,54.682,0,0,0-8.293-.3c-3.115.066-6.216-.039-9.331-.013a27.372,27.372,0,0,0-5.073.42A11.272,11.272,0,0,0,32.633,37.7a13.684,13.684,0,0,0-5.165,5.357,16.007,16.007,0,0,0-.828,2.114c-1.2-.2-2.195-1.051-3.43-1.037-.276-.052-.407.249-.552.433a5.6,5.6,0,0,0-1.2,2.968c.946.853,2.3,1.116,3.194,2.035-.775.63-1.669,1.1-2.405,1.786a8.33,8.33,0,0,0-2.339,3.952c-.131.512-.46.945-.618,1.444a14.949,14.949,0,0,0-.762,3.716,12.536,12.536,0,0,0,.644,6.342,61.855,61.855,0,0,0,.145,6.8,5.616,5.616,0,0,0,1.1,3.1c-.92.026-1.84-.013-2.76.079-.289.04-.631-.052-.854.184a1.043,1.043,0,0,0-.237,1.156c.237.512.867.5,1.354.512H78.119a2.076,2.076,0,0,0,1.314-.289A.979.979,0,0,0,79.026,76.751ZM36.5,45.512a17.95,17.95,0,0,1,6.414-.788c2.8.013,5.612.053,8.411,0,2.51-.013,5.086-.144,7.491.709a7.508,7.508,0,0,1,3.93,2.81,9.851,9.851,0,0,1,1.669,4.727c-1.643.026-3.3.013-4.941,0-.223.039-.25-.223-.3-.368-.316-1.274-.618-2.547-.959-3.821-2.142-.026-4.285.026-6.427.131-.881,1.169-.565,2.889-1.577,3.979a6.6,6.6,0,0,1-2.155.249,6.6,6.6,0,0,1-2.326-.236c-.237-.066-.368-.289-.5-.486-.631-1.011-.618-2.245-1.078-3.322-.079-.158-.2-.381-.421-.341-1.1,0-2.208.039-3.3.039a22.463,22.463,0,0,0-2.97.105q-.532,1.989-1.025,3.979a5.125,5.125,0,0,1-1,.079c-1.38-.013-2.76.013-4.14,0A8.956,8.956,0,0,1,36.5,45.512ZM33.448,76.659c-1.682-.026-3.364.053-5.047-.04.841-1.129.578-2.6.644-3.926,1.419-.026,2.839-.171,4.271-.158,1.748.013,3.5-.131,5.257-.118,6.44-.026,12.88-.04,19.319,0,1.59-.013,3.167.131,4.745.1,1.459,0,2.931.118,4.39.184.092,1.326-.237,2.8.6,3.939Q50.54,76.686,33.448,76.659Z" transform="translate(-10.827 -19.625)"/><path class="c" d="M41.809,84.226c.158-.788.289-1.563.5-2.337,2.9.026,5.809-.013,8.713.026-.171.775-.381,1.536-.539,2.3-.775.013-1.538,0-2.3.013-.67,2.705-1.235,5.436-1.893,8.142-1.354,0-2.72.026-4.074,0,.618-2.416,1.091-4.859,1.7-7.275a4.937,4.937,0,0,0,.131-.867C43.307,84.239,42.558,84.213,41.809,84.226Z" transform="translate(-24.642 -44.708)"/><path class="c" d="M60.956,83.132a9.916,9.916,0,0,1,2.116-1.208c1.879-.026,3.772.013,5.651-.013.276,0,.591-.053.815.158a14.778,14.778,0,0,1,1.209,1,2.777,2.777,0,0,1-.145.8c-.618,2.429-1.078,4.911-1.722,7.327a11.808,11.808,0,0,1-2.011,1.169c-2.1.013-4.206.026-6.3,0-.552-.3-.973-.775-1.485-1.116.46-2.166.973-4.32,1.472-6.487C60.72,84.222,60.746,83.657,60.956,83.132Zm3.8,1.116c-.421,1.943-.933,3.861-1.3,5.817h1.682c.473-1.93.867-3.874,1.341-5.8C65.9,84.235,65.333,84.235,64.754,84.248Z" transform="translate(-34.077 -44.717)"/><path class="c" d="M84.468,81.939c2.576-.053,5.165,0,7.741-.026.539-.053.881.446,1.288.722.2.21.618.368.473.722-.2.853-.381,1.72-.578,2.574-.578.512-1.341.775-1.945,1.261.434.394.959.7,1.353,1.129-.184,1.379-.6,2.705-.867,4.07-1.354,0-2.721.013-4.074-.013.342-1.353.631-2.705.92-4.058-.578,0-1.143-.013-1.709.013-.3,1.353-.591,2.718-.92,4.07-1.354-.013-2.694-.013-4.048,0,.421-2.1.986-4.162,1.406-6.263C83.811,84.736,84.192,83.344,84.468,81.939Zm3.548,2.311c-.131.578-.3,1.156-.407,1.746q.867.02,1.735,0c.079-.591.237-1.156.355-1.733C89.146,84.237,88.581,84.237,88.016,84.25Z" transform="translate(-46.641 -44.719)"/><path class="c" d="M109.862,82.107c.473-.289,1.065-.131,1.59-.171,1.669.013,3.338-.013,4.994.013a7.292,7.292,0,0,1,1.3.972c.381.249.079.735.053,1.09-.158.46-.132,1.05-.447,1.431-1.314.026-2.642.013-3.956,0,.092-.394.184-.775.276-1.169-.578-.013-1.157,0-1.735.013-.355,1.943-.959,3.847-1.275,5.8h1.669c.132-.578.289-1.156.407-1.746-.381-.013-.775-.013-1.156,0,.171-.775.316-1.549.513-2.324,1.735.013,3.47-.013,5.218,0-.381,1.733-.749,3.467-1.2,5.187a10.2,10.2,0,0,1-2.037,1.182c-2.05.026-4.114.013-6.177,0a7.4,7.4,0,0,1-1.6-1.13c.394-1.956.867-3.9,1.327-5.856a22.042,22.042,0,0,1,.539-2.272A15.739,15.739,0,0,1,109.862,82.107Z" transform="translate(-59.853 -44.73)"/></svg>